<?xml version="1.0" encoding="utf-8"?>
<!-- Generator: Adobe Illustrator 23.0.3, SVG Export Plug-In . SVG Version: 6.00 Build 0)  -->
<svg version="1.1" id="Layer_1" xmlns="http://www.w3.org/2000/svg" xmlns:xlink="http://www.w3.org/1999/xlink" x="0px" y="0px"
	 viewBox="0 0 455.76 85.5" style="enable-background:new 0 0 455.76 85.5;" xml:space="preserve">
<style type="text/css">
	.st0{fill-rule:evenodd;clip-rule:evenodd;fill:#FFFFFF;}
	.st1{fill-rule:evenodd;clip-rule:evenodd;fill:url(#SVGID_1_);}
	.st2{fill:#00A651;}
	.st3{fill:#ED1C24;}
	.st4{fill:#F7941D;}
	.st5{fill:url(#SVGID_2_);}
	.st6{fill:url(#SVGID_3_);}
	.st7{fill:url(#SVGID_4_);}
	.st8{fill:url(#SVGID_5_);}
	.st9{fill:url(#SVGID_6_);}
	.st10{fill:url(#SVGID_7_);}
	.st11{display:none;}
	.st12{fill:#939598;}
</style>
<symbol  id="IAI" viewBox="-52.56 -42.76 105.12 85.51">
	<g id="Layer_8_2_">
		<path class="st0" d="M27.64-33.62c-3.71-2.63-7.19-4-10.51-4c-2.81,0-4.99,0.88-6.46,2.61C9.81-34,9.2-32.72,8.84-31.17
			c-1.29-0.91-3.12-1.96-5.45-3.14c-5.28-2.64-9.52-3.95-12.73-3.95c-2.2,0-3.87,0.63-5.06,1.89c-1.19,1.27-1.78,3.12-1.78,5.52
			c0,0.68,0.06,1.87,0.17,3.58c0.11,1.7,0.18,3.05,0.22,4.09h-0.64c-3.14-4.73-6.55-8.42-10.25-11.08c-3.69-2.66-7.19-4-10.51-4
			c-2.81,0-4.99,0.88-6.46,2.61c-1.47,1.74-2.22,4.27-2.22,7.56c0,5.67,0.9,10.82,2.68,15.44c1.78,4.61,4.18,7.98,7.24,10.13
			c2.07,1.52,4.86,2.84,8.38,3.96c3.52,1.15,6.35,1.72,8.51,1.72c0.73,0,1.25-0.13,1.56-0.39c0.33-0.24,0.51-0.68,0.55-1.28
			c0-0.62-0.33-1.1-0.99-1.52s-1.85-0.79-3.52-1.12l-1.15-16.25l-0.07-0.24c-0.35-3.87-0.73-6.73-1.17-8.58
			c2.27,2.24,4.13,4.33,5.61,6.29c1.45,1.96,2.4,3.63,2.84,5.06l3.01,40.45c-0.17-0.04-0.37-0.11-0.64-0.2
			c-1.43-0.46-2.31-0.7-2.64-0.7c-0.48,0-0.81,0.11-1.01,0.33c-0.18,0.2-0.29,0.55-0.29,1.01c0,1.25,1.89,2.7,5.65,4.35
			c3.74,1.65,7.21,2.49,10.4,2.49c2.75,0,4.75-0.7,6.02-2.13c1.25-1.41,1.89-3.65,1.89-6.69c0-0.17-0.02-0.46-0.07-0.87
			c-0.04-0.4-0.06-0.75-0.06-0.99l-3.8-51.54c1.03,0.33,2.24,0.88,3.6,1.6c0.72,0.38,1.31,0.65,1.77,0.83
			c0.05,5.47,0.95,10.44,2.68,14.91c1.78,4.62,4.18,7.98,7.24,10.14c2.07,1.52,4.86,2.84,8.37,3.96c3.52,1.15,6.36,1.71,8.51,1.71
			c0.73,0,1.26-0.13,1.56-0.39c0.33-0.24,0.51-0.68,0.55-1.27c0-0.62-0.33-1.1-0.99-1.52s-1.85-0.79-3.52-1.12l-1.15-16.25
			l-0.06-0.25c-0.35-3.87-0.73-6.72-1.17-8.57C28.99-32.64,28.16-33.26,27.64-33.62L27.64-33.62z M-32.28,9.93
			c3.47,0,6.49,1.6,9.02,4.84c2.53,3.21,3.8,7.01,3.8,11.41c0,3.03-0.7,5.46-2.09,7.21c-1.41,1.76-3.3,2.64-5.7,2.64
			c-3.6,0-6.66-1.58-9.19-4.77c-2.51-3.17-3.76-7-3.76-11.48c0-3.16,0.68-5.61,2.07-7.3C-36.76,10.79-34.8,9.93-32.28,9.93
			L-32.28,9.93z M22.03,10.57c3.48,0,6.49,1.61,9.02,4.84c2.53,3.21,3.8,7.01,3.8,11.41c0,3.04-0.7,5.45-2.09,7.21
			c-1.4,1.76-3.3,2.64-5.69,2.64c-3.61,0-6.66-1.59-9.19-4.77c-2.51-3.17-3.76-6.99-3.76-11.47c0-3.17,0.68-5.61,2.07-7.3
			C17.55,11.43,19.51,10.57,22.03,10.57z"/>
		
			<linearGradient id="SVGID_1_" gradientUnits="userSpaceOnUse" x1="-56.045" y1="-6.075" x2="-56.045" y2="-81.005" gradientTransform="matrix(1 0 0 1 51.78 42.75)">
			<stop  offset="0" style="stop-color:#E9EBED"/>
			<stop  offset="0.1565" style="stop-color:#FFFFFF"/>
			<stop  offset="0.3871" style="stop-color:#FFFFFF"/>
			<stop  offset="0.5306" style="stop-color:#D5D7D8"/>
			<stop  offset="0.6901" style="stop-color:#E9E9EA"/>
			<stop  offset="0.8555" style="stop-color:#F8F7F7"/>
			<stop  offset="1" style="stop-color:#FFFFFF"/>
		</linearGradient>
		<path class="st1" d="M27.64-33.62c-3.71-2.63-7.19-4-10.51-4c-2.81,0-4.99,0.88-6.46,2.61C9.81-34,9.2-32.72,8.84-31.17
			c-1.29-0.91-3.12-1.96-5.45-3.14c-5.28-2.64-9.52-3.95-12.73-3.95c-2.2,0-3.87,0.63-5.06,1.89c-1.19,1.27-1.78,3.12-1.78,5.52
			c0,0.68,0.06,1.87,0.17,3.58c0.11,1.7,0.18,3.05,0.22,4.09h-0.64c-3.14-4.73-6.55-8.42-10.25-11.08c-3.69-2.66-7.19-4-10.51-4
			c-2.81,0-4.99,0.88-6.46,2.61c-1.47,1.74-2.22,4.27-2.22,7.56c0,5.67,0.9,10.82,2.68,15.44c1.78,4.61,4.18,7.98,7.24,10.13
			c2.07,1.52,4.86,2.84,8.38,3.96c3.52,1.15,6.35,1.72,8.51,1.72c0.73,0,1.25-0.13,1.56-0.39c0.33-0.24,0.51-0.68,0.55-1.28
			c0-0.62-0.33-1.1-0.99-1.52s-1.85-0.79-3.52-1.12l-1.15-16.25l-0.07-0.24c-0.35-3.87-0.73-6.73-1.17-8.58
			c2.27,2.24,4.13,4.33,5.61,6.29c1.45,1.96,2.4,3.63,2.84,5.06l3.01,40.45c-0.17-0.04-0.37-0.11-0.64-0.2
			c-1.43-0.46-2.31-0.7-2.64-0.7c-0.48,0-0.81,0.11-1.01,0.33c-0.18,0.2-0.29,0.55-0.29,1.01c0,1.25,1.89,2.7,5.65,4.35
			c3.74,1.65,7.21,2.49,10.4,2.49c2.75,0,4.75-0.7,6.02-2.13c1.25-1.41,1.89-3.65,1.89-6.69c0-0.17-0.02-0.46-0.07-0.87
			c-0.04-0.4-0.06-0.75-0.06-0.99l-3.8-51.54c1.03,0.33,2.24,0.88,3.6,1.6c0.72,0.38,1.31,0.65,1.77,0.83
			c0.05,5.47,0.95,10.44,2.68,14.91c1.78,4.62,4.18,7.98,7.24,10.14c2.07,1.52,4.86,2.84,8.37,3.96c3.52,1.15,6.36,1.71,8.51,1.71
			c0.73,0,1.26-0.13,1.56-0.39c0.33-0.24,0.51-0.68,0.55-1.27c0-0.62-0.33-1.1-0.99-1.52s-1.85-0.79-3.52-1.12l-1.15-16.25
			l-0.06-0.25c-0.35-3.87-0.73-6.72-1.17-8.57C28.99-32.64,28.16-33.26,27.64-33.62L27.64-33.62z M-32.28,9.93
			c3.47,0,6.49,1.6,9.02,4.84c2.53,3.21,3.8,7.01,3.8,11.41c0,3.03-0.7,5.46-2.09,7.21c-1.41,1.76-3.3,2.64-5.7,2.64
			c-3.6,0-6.66-1.58-9.19-4.77c-2.51-3.17-3.76-7-3.76-11.48c0-3.16,0.68-5.61,2.07-7.3C-36.76,10.79-34.8,9.93-32.28,9.93
			L-32.28,9.93z M22.03,10.57c3.48,0,6.49,1.61,9.02,4.84c2.53,3.21,3.8,7.01,3.8,11.41c0,3.04-0.7,5.45-2.09,7.21
			c-1.4,1.76-3.3,2.64-5.69,2.64c-3.61,0-6.66-1.59-9.19-4.77c-2.51-3.17-3.76-6.99-3.76-11.47c0-3.17,0.68-5.61,2.07-7.3
			C17.55,11.43,19.51,10.57,22.03,10.57z"/>
		<g>
			<path class="st2" d="M-17.09-34.22l-0.33-5l4.48,0.25c-0.94,0.39-1.77,0.93-2.46,1.66C-16.18-36.48-16.73-35.42-17.09-34.22z"/>
			<path class="st2" d="M-2.84-38.42l9.94,0.55l0.34,4.18c-0.98-0.57-2.12-1.19-3.43-1.84C1.48-36.78-0.78-37.74-2.84-38.42z"/>
			<path class="st2" d="M-16.74,28.83c1.06,0.91,2.66,1.83,4.88,2.8c3.91,1.72,7.6,2.6,10.95,2.6c3.14,0,5.51-0.87,7.05-2.6
				c1.49-1.67,2.24-4.22,2.24-7.6c0-0.22-0.02-0.53-0.07-1.02c-0.04-0.33-0.06-0.65-0.06-0.85v-0.1L4.61-27.26
				c0.44,0.21,0.92,0.45,1.43,0.72c0.38,0.2,0.73,0.37,1.06,0.52c0.11,4.3,0.78,8.32,1.94,12.05l4.32,53.18l-33.3,2.04l0.03-1.11
				l2.37,0.2l0.81,0.12v-0.05V28.83H-16.74z"/>
			<path class="st2" d="M-15.66,23.31c-0.14,0-0.26,0.02-0.39,0.03l1.92-2.71l0.23,3.05C-14.91,23.38-15.34,23.31-15.66,23.31z"/>
		</g>
		<g>
			<path class="st3" d="M35.87,30.17c0.21-1.04,0.35-2.14,0.35-3.36c0-4.68-1.38-8.8-4.1-12.26c-2.78-3.55-6.18-5.36-10.1-5.36
				c-2.95,0-5.28,1.03-6.91,3.07c-0.97,1.18-1.6,2.7-1.98,4.49L12.47,8.1L11.1-8.68c1.72,3.46,3.85,6.08,6.47,7.93
				c2.15,1.58,5.1,2.98,8.75,4.14c3.68,1.2,6.61,1.78,8.93,1.78c1.06,0,1.85-0.23,2.42-0.7c0.63-0.48,0.99-1.24,1.07-2.25v-0.1
				c0-0.76-0.28-1.83-1.63-2.68c-0.66-0.42-1.61-0.76-2.96-1.09L33.07-17L33-17.26c-0.37-4.06-0.75-6.82-1.19-8.65
				c-1.48-7.03-2.37-8.14-3.38-8.85c-4.04-2.86-7.74-4.25-11.31-4.25c-3.24,0-5.77,1.05-7.51,3.1c-0.25,0.29-0.46,0.62-0.68,0.95
				l-0.44-5.42l23.23,0.87l11.56,55.94l-2.4,14.9L35.87,30.17z"/>
		</g>
		<g>
			<path class="st4" d="M-36.74-1.39c2.15,1.58,5.1,2.98,8.75,4.14c3.68,1.2,6.61,1.78,8.93,1.78c1.06,0,1.85-0.23,2.42-0.69
				c0.22-0.17,0.4-0.39,0.56-0.63l1.12,16.19l-3.17,4.49v0.81c-0.26-4.07-1.62-7.69-4.04-10.77c-2.79-3.56-6.18-5.36-10.1-5.36
				c-2.96,0-5.28,1.03-6.92,3.07c-1.57,1.92-2.37,4.66-2.37,8.16c0,4.78,1.36,8.93,4.06,12.33c2.78,3.52,6.24,5.29,10.27,5.29
				c2.82,0,5.09-1.06,6.77-3.15c1.39-1.76,2.16-4.07,2.34-6.85v9.93v1.55l-32.77-2.74l8.3-44.3C-40.99-5.27-39.06-3.03-36.74-1.39z"
				/>
			<path class="st4" d="M-25.87-35.38c-2.07-1.49-4.11-2.59-6.11-3.3l12.9-1.25l0.83,11.97C-20.65-30.95-23.19-33.44-25.87-35.38z"
				/>
			<path class="st4" d="M-20.16-2.28l-1.08-15.35l-0.07-0.26c-0.14-1.57-0.29-2.95-0.44-4.15c0.91,1.02,1.72,2.01,2.42,2.94
				c0.81,1.09,1.43,2.07,1.9,2.96l1.08,15.66c-0.22-0.25-0.5-0.49-0.86-0.72C-17.86-1.61-18.81-1.96-20.16-2.28z"/>
		</g>
		<g>
			<path d="M44.82-27c4.36,0,7.74-3.49,7.74-7.86c0-4.45-3.38-7.9-7.79-7.9c-4.36,0-7.83,3.45-7.83,7.9c0,4.36,3.48,7.86,7.83,7.86
				C44.77-26.99,44.82-26.99,44.82-27z M44.73-28.18c-3.67,0-6.42-3-6.42-6.67c0-3.72,2.75-6.68,6.52-6.68
				c3.67-0.05,6.37,2.96,6.37,6.68c0,3.67-2.7,6.67-6.42,6.67H44.73z M43.45-39.17h-1.93v8.3c0.77,0.15,1.83,0.31,3.21,0.31
				c1.58,0,2.29-0.25,2.9-0.67c0.46-0.36,0.81-1.02,0.81-1.78c0-0.97-0.71-1.68-1.73-1.99v-0.11c0.82-0.25,1.27-0.92,1.53-2.04
				c0.26-1.27,0.41-1.78,0.61-2.03h-2.09c-0.26,0.3-0.41,1.01-0.66,1.98c-0.15,0.92-0.66,1.32-1.73,1.32h-0.92
				C43.45-35.89,43.45-39.17,43.45-39.17z M43.5-34.5h0.92c1.07,0,1.94,0.35,1.94,1.23c0,0.76-0.56,1.27-1.78,1.27
				c-0.51,0-0.87-0.05-1.07-0.1L43.5-34.5L43.5-34.5z"/>
		</g>
		<path d="M42.03,33.06l-6.47-1.51c-0.4,1.27-0.96,2.4-1.72,3.35c-1.67,2.09-3.95,3.16-6.77,3.16c-4.03,0-7.48-1.78-10.27-5.29
			c-1.34-1.7-2.36-3.59-3.03-5.64l1.09,13.41l-36.25,2.22l0.08-2.72l-31.25-2.62l8.92-47.61c-0.29-0.63-0.56-1.27-0.82-1.95
			c-1.84-4.77-2.77-10.13-2.77-15.93c0-3.62,0.86-6.46,2.55-8.46c1.74-2.05,4.27-3.1,7.51-3.1c0.15,0,0.3,0.02,0.45,0.02l19.17-1.87
			l0.06,0.86l24.7,1.36L7-41.81l25.9,0.97L44.7,16.3l0.03,0.13L42.03,33.06z M18.96,31.04c2.27,2.86,4.92,4.25,8.12,4.25
			c1.96,0,3.48-0.69,4.61-2.11c1.19-1.51,1.79-3.65,1.79-6.37c0-4.05-1.18-7.6-3.51-10.56c-2.27-2.9-4.86-4.31-7.94-4.31
			c-2.11,0-3.67,0.67-4.78,2.05c-1.17,1.43-1.76,3.58-1.76,6.43C15.5,24.57,16.66,28.15,18.96,31.04z M13.35,39.22L9.03-13.97
			c-1.15-3.72-1.82-7.75-1.94-12.05c-0.33-0.15-0.68-0.33-1.06-0.52c-0.51-0.27-0.99-0.51-1.43-0.72l3.64,49.34v0.1
			c0,0.2,0.02,0.52,0.06,0.85c0.05,0.48,0.07,0.8,0.07,1.02c0,3.38-0.75,5.93-2.24,7.6c-1.53,1.72-3.91,2.6-7.05,2.6
			c-3.36,0-7.04-0.88-10.95-2.6c-2.22-0.98-3.82-1.89-4.88-2.8v11.57v0.05l-0.81-0.12l-2.37-0.2l-0.03,1.11L13.35,39.22z
			 M-17.43-16.13c-0.47-0.89-1.09-1.88-1.9-2.96c-0.7-0.93-1.51-1.92-2.42-2.94c0.15,1.2,0.29,2.58,0.44,4.15l0.07,0.26l1.08,15.35
			c1.35,0.32,2.3,0.67,2.96,1.09c0.36,0.23,0.64,0.47,0.86,0.72L-17.43-16.13z M-14.12,20.63l-1.92,2.71
			c0.13-0.01,0.25-0.03,0.39-0.03c0.32,0,0.74,0.06,1.76,0.36L-14.12,20.63z M-50.9,36.15l32.77,2.74v-1.55v-9.93
			c-0.18,2.78-0.95,5.09-2.34,6.85c-1.67,2.09-3.95,3.15-6.77,3.15c-4.03,0-7.48-1.77-10.27-5.29c-2.69-3.4-4.06-7.55-4.06-12.33
			c0-3.49,0.8-6.24,2.37-8.16c1.64-2.04,3.96-3.07,6.92-3.07c3.92,0,7.31,1.8,10.1,5.36c2.43,3.08,3.78,6.7,4.04,10.77v-0.81
			l3.17-4.49L-16.09,3.2c-0.15,0.24-0.33,0.46-0.56,0.63c-0.57,0.46-1.36,0.69-2.42,0.69c-2.32,0-5.24-0.59-8.93-1.78
			c-3.65-1.16-6.6-2.56-8.75-4.14c-2.32-1.64-4.25-3.88-5.86-6.77L-50.9,36.15z M-20.83,26.18c0-4.05-1.18-7.6-3.51-10.56
			c-2.27-2.9-4.87-4.31-7.93-4.31c-2.11,0-3.67,0.67-4.79,2.05c-1.17,1.42-1.76,3.59-1.76,6.43c0,4.14,1.17,7.72,3.46,10.62
			c2.27,2.86,4.93,4.25,8.11,4.25c1.97,0,3.48-0.7,4.62-2.12C-21.44,31.03-20.83,28.89-20.83,26.18z M-44.49-28.08
			c0,5.46,0.87,10.48,2.59,14.94c1.69,4.39,3.9,7.5,6.77,9.52c1.93,1.42,4.62,2.68,7.98,3.76c3.37,1.09,6.09,1.65,8.09,1.65
			c0.44,0,0.63-0.06,0.69-0.08c0.02-0.04,0.04-0.11,0.05-0.24c-0.03-0.1-0.2-0.24-0.35-0.33c-0.28-0.18-1.05-0.54-3.05-0.93
			l-1.04-0.22l-1.21-17.16l-0.06-0.23l-0.01-0.12c-0.36-3.94-0.73-6.68-1.14-8.38l-1.11-4.67l3.42,3.37
			c2.35,2.34,4.23,4.44,5.74,6.45c1.57,2.11,2.57,3.9,3.05,5.47l0.04,0.15l3.16,42.5l-1.84-0.45c-0.21-0.05-0.42-0.13-0.67-0.21
			l-0.06-0.02c-1.31-0.42-1.87-0.57-2.12-0.62c0.13,0.27,0.85,1.31,4.81,3.04c3.56,1.57,6.87,2.37,9.84,2.37
			c2.36,0,3.99-0.55,5-1.67c1.02-1.15,1.54-3.09,1.54-5.77c0-0.08-0.01-0.28-0.05-0.72c-0.05-0.41-0.07-0.79-0.07-1.09L1.56-31.29
			l1.94,0.62c1.07,0.34,2.32,0.9,3.82,1.7c0.62,0.32,1.18,0.59,1.63,0.76l0.87,0.34l0.01,0.93c0.05,5.27,0.92,10.13,2.58,14.44
			c1.69,4.39,3.9,7.5,6.77,9.52c1.93,1.43,4.62,2.69,7.99,3.76c3.36,1.09,6.08,1.64,8.08,1.64c0.44,0,0.63-0.06,0.69-0.08
			c0.01-0.04,0.03-0.11,0.05-0.24c-0.03-0.1-0.2-0.24-0.35-0.33c-0.28-0.18-1.06-0.54-3.05-0.93l-1.03-0.21l-1.21-17.17l-0.06-0.23
			l-0.01-0.12c-0.36-3.94-0.73-6.68-1.14-8.42c-0.63-3-1.54-6.68-2.29-7.21c-3.56-2.52-6.74-3.75-9.72-3.75
			c-2.39,0-4.22,0.71-5.41,2.13c-0.71,0.84-1.23,1.93-1.54,3.26l-0.47,1.99l-1.67-1.18c-1.22-0.87-3-1.88-5.27-3.03
			c-5.06-2.53-9.14-3.82-12.12-3.82c-1.8,0-3.13,0.49-4.05,1.46c-0.94,1.01-1.41,2.55-1.41,4.58c0,0.71,0.08,2.1,0.17,3.5
			c0.09,1.43,0.17,2.78,0.22,4.11l0.06,1.43h-2.81l-0.41-0.61c-3.04-4.57-6.38-8.19-9.9-10.73c-3.45-2.48-6.72-3.75-9.71-3.75
			c-2.39,0-4.22,0.72-5.41,2.13C-43.85-33.28-44.49-31.03-44.49-28.08z M-31.97-38.67c1.99,0.71,4.03,1.8,6.11,3.3
			c2.67,1.92,5.22,4.43,7.62,7.42l-0.83-11.97L-31.97-38.67z M-17.09-34.22c0.36-1.21,0.91-2.25,1.69-3.09
			c0.69-0.73,1.52-1.27,2.46-1.66l-4.48-0.25L-17.09-34.22z M7.09-37.87l-9.94-0.55c2.06,0.68,4.33,1.63,6.85,2.89
			c1.31,0.66,2.45,1.27,3.43,1.84L7.09-37.87z M31.73-39.49L8.5-40.37l0.44,5.42c0.21-0.33,0.43-0.66,0.68-0.95
			c1.74-2.05,4.27-3.1,7.51-3.1c3.57,0,7.26,1.39,11.31,4.25c1.01,0.71,1.89,1.82,3.38,8.85c0.44,1.83,0.81,4.59,1.19,8.65
			l0.07,0.26l1.08,15.35c1.35,0.32,2.3,0.67,2.96,1.09c1.34,0.85,1.63,1.92,1.63,2.68v0.1c-0.09,1.01-0.45,1.76-1.08,2.25
			c-0.57,0.47-1.36,0.7-2.42,0.7c-2.32,0-5.24-0.59-8.93-1.78c-3.65-1.16-6.6-2.56-8.75-4.14c-2.62-1.85-4.75-4.47-6.47-7.93
			l1.38,16.78l0.66,8.65c0.38-1.79,1.01-3.31,1.98-4.49c1.63-2.03,3.96-3.07,6.91-3.07c3.92,0,7.32,1.81,10.1,5.36
			c2.72,3.45,4.1,7.58,4.1,12.26c0,1.21-0.14,2.31-0.35,3.36l5.01,1.17l2.4-14.9L31.73-39.49z"/>
		<g id="gradient1_2_">
			
				<linearGradient id="SVGID_2_" gradientUnits="userSpaceOnUse" x1="-84.67" y1="-4.375" x2="-84.67" y2="-49.585" gradientTransform="matrix(1 0 0 1 51.78 42.75)">
				<stop  offset="0" style="stop-color:#FFECD9"/>
				<stop  offset="1" style="stop-color:#F9A158"/>
			</linearGradient>
			<path class="st5" d="M-50.34,35.72l19.36,1.62c-2.61-0.79-4.92-2.44-6.89-4.93c-2.76-3.48-4.16-7.73-4.16-12.62
				c0-3.61,0.83-6.45,2.48-8.46c1.72-2.15,4.18-3.24,7.28-3.24c4.07,0,7.59,1.86,10.47,5.54c2.08,2.64,3.4,5.69,3.93,9.07l2.43-3.44
				l-1.04-14.95C-17.12,4.77-17.96,5-19.06,5c-2.37,0-5.33-0.59-9.07-1.81c-3.7-1.18-6.69-2.6-8.88-4.21
				c-2.07-1.46-3.83-3.37-5.35-5.82L-50.34,35.72z M-18.61,31.91c-0.39,0.98-0.88,1.86-1.49,2.63c-1.46,1.83-3.36,2.91-5.65,3.23
				l7.14,0.6V31.91z"/>
			
				<linearGradient id="SVGID_3_" gradientUnits="userSpaceOnUse" x1="-76.215" y1="-72.135" x2="-76.215" y2="-82.155" gradientTransform="matrix(1 0 0 1 51.78 42.75)">
				<stop  offset="0" style="stop-color:#F58320"/>
				<stop  offset="1" style="stop-color:#F58320"/>
			</linearGradient>
			<path class="st6" d="M-30.04-38.39c1.48,0.68,2.96,1.56,4.44,2.63c2.31,1.66,4.59,3.8,6.77,6.37l-0.69-10.02L-30.04-38.39z"/>
			
				<linearGradient id="SVGID_4_" gradientUnits="userSpaceOnUse" x1="-70.77" y1="-44.295" x2="-70.77" y2="-63.315" gradientTransform="matrix(1 0 0 1 51.78 42.75)">
				<stop  offset="0" style="stop-color:#F9A45D"/>
				<stop  offset="1" style="stop-color:#F68929"/>
			</linearGradient>
			<path class="st7" d="M-21.1-20.57c0.09,0.81,0.17,1.69,0.26,2.65l0.06,0.17l1.07,15.1c1.23,0.32,2.12,0.66,2.77,1.06
				c0.02,0.01,0.04,0.03,0.06,0.04l-1-14.45c-0.47-0.89-1.08-1.83-1.81-2.81C-20.13-19.38-20.59-19.96-21.1-20.57z"/>
			
				<linearGradient id="SVGID_5_" gradientUnits="userSpaceOnUse" x1="-55.09" y1="-1.995" x2="-55.09" y2="-69.225" gradientTransform="matrix(1 0 0 1 51.78 42.75)">
				<stop  offset="0" style="stop-color:#E1EFE1"/>
				<stop  offset="1" style="stop-color:#17A84F"/>
			</linearGradient>
			<path class="st8" d="M8.72,22.04c0.01,0.33,0.03,0.62,0.06,0.93c0.05,0.51,0.08,0.83,0.08,1.07c0,3.5-0.79,6.16-2.36,7.91
				c-1.63,1.83-4.12,2.75-7.4,2.75c-3.41,0-7.16-0.89-11.14-2.64c-1.79-0.78-3.18-1.53-4.22-2.27v10.75l29.1-1.78l-4.28-52.7
				c-1.14-3.64-1.8-7.64-1.93-11.78c-0.26-0.12-0.53-0.26-0.81-0.41c-0.23-0.12-0.46-0.24-0.68-0.35L8.72,22.04z M-19.46,40.75
				l0.67-0.04l-0.67-0.06V40.75z"/>
			
				<linearGradient id="SVGID_6_" gradientUnits="userSpaceOnUse" x1="-66.56" y1="-19.705" x2="-66.56" y2="-20.7714" gradientTransform="matrix(1 0 0 1 51.78 42.75)">
				<stop  offset="0" style="stop-color:#B6D9B6"/>
				<stop  offset="1" style="stop-color:#AED4AF"/>
			</linearGradient>
			<path class="st9" d="M-15.14,22.88c0.19,0.03,0.42,0.08,0.72,0.16l-0.08-1.07L-15.14,22.88z"/>
			
				<linearGradient id="SVGID_7_" gradientUnits="userSpaceOnUse" x1="-25.855" y1="-11.995" x2="-25.855" y2="-82.615" gradientTransform="matrix(1 0 0 1 51.78 42.75)">
				<stop  offset="0" style="stop-color:#FEE3D7"/>
				<stop  offset="0.0785" style="stop-color:#FCD4C3"/>
				<stop  offset="0.2385" style="stop-color:#F8AB93"/>
				<stop  offset="0.4632" style="stop-color:#F16F56"/>
				<stop  offset="0.6482" style="stop-color:#EB252B"/>
				<stop  offset="1" style="stop-color:#EB242A"/>
			</linearGradient>
			<path class="st10" d="M9.31-36.26c1.84-2.13,4.47-3.21,7.82-3.21c3.66,0,7.45,1.42,11.58,4.34c1.13,0.8,2.04,1.92,3.57,9.14
				c0.44,1.83,0.82,4.6,1.2,8.7l0.05,0.18l1.07,15.1c1.23,0.31,2.12,0.66,2.76,1.06c1.53,0.97,1.85,2.21,1.85,3.08
				c-0.09,1.28-0.51,2.15-1.25,2.72c-0.64,0.53-1.53,0.79-2.7,0.79c-2.37,0-5.33-0.59-9.07-1.81c-3.69-1.17-6.68-2.59-8.88-4.21
				c-2.16-1.52-3.99-3.54-5.54-6.13l1.19,14.56l0.47,6.16c0.36-0.87,0.81-1.62,1.34-2.26c1.72-2.15,4.17-3.24,7.28-3.24
				c4.07,0,7.59,1.87,10.47,5.54c2.78,3.54,4.2,7.76,4.2,12.55c0,0.99-0.09,1.95-0.28,3l4.08,0.95l2.31-14.31L31.35-39.03
				L9.02-39.87L9.31-36.26z"/>
		</g>
	</g>
</symbol>
<g id="Guides_For_Artboard">
</g>
<g id="Warstwa_6" class="st11">
</g>
<g id="Layer_5">
</g>
<g id="Layer_3">
	<g>
		<g>
			<path d="M116.18,69.62l0.26-49.03l5.83,0.03l-0.26,49.03L116.18,69.62z"/>
			<path class="st12" d="M157.54,17.94l-0.28,51.91l-5.09-0.03l0.03-5.56c-1.22,2.2-2.79,3.89-4.72,5.07
				c-1.93,1.17-4.07,1.75-6.44,1.74c-4.4-0.02-7.94-1.55-10.61-4.59c-2.67-3.04-4-7.05-3.97-12.03c0.03-5.02,1.37-9.02,4.02-12
				c2.65-2.98,6.16-4.46,10.54-4.43c2.55,0.01,4.75,0.6,6.62,1.76c1.87,1.16,3.38,2.88,4.53,5.17l0.15-27.03L157.54,17.94z
				 M152.25,54.65c0.02-3.42-0.92-6.17-2.8-8.27c-1.89-2.1-4.38-3.16-7.48-3.17c-3.1-0.02-5.53,0.92-7.28,2.81s-2.64,4.51-2.65,7.86
				c-0.02,3.77,0.85,6.73,2.6,8.87s4.18,3.22,7.28,3.24c3.22,0.02,5.74-0.97,7.57-2.97C151.31,61.01,152.23,58.22,152.25,54.65z"/>
			<path class="st12" d="M160.95,54.63c0.01-2.25,0.44-4.38,1.27-6.37c0.84-1.99,2.05-3.77,3.65-5.32c1.59-1.55,3.4-2.73,5.41-3.54
				c2.01-0.8,4.16-1.2,6.44-1.19c2.23,0.01,4.35,0.44,6.34,1.27c1.99,0.84,3.8,2.05,5.42,3.65c1.58,1.55,2.77,3.33,3.59,5.33
				c0.81,2,1.22,4.12,1.2,6.35c-0.01,2.23-0.44,4.33-1.27,6.31c-0.84,1.97-2.05,3.72-3.65,5.25c-1.64,1.6-3.47,2.82-5.5,3.65
				c-2.03,0.84-4.13,1.25-6.32,1.24c-2.26-0.01-4.39-0.44-6.41-1.29s-3.81-2.06-5.39-3.63c-1.58-1.62-2.77-3.41-3.59-5.38
				C161.34,58.99,160.94,56.88,160.95,54.63z M166.51,54.66c-0.02,3.24,1.05,5.98,3.2,8.24c2.15,2.25,4.77,3.39,7.85,3.41
				c3.06,0.02,5.67-1.09,7.82-3.32c2.16-2.23,3.24-4.97,3.26-8.21c0.02-3.24-1.04-5.98-3.17-8.24c-2.13-2.25-4.73-3.39-7.78-3.41
				c-3.1-0.02-5.74,1.09-7.91,3.32C167.62,48.68,166.53,51.42,166.51,54.66z"/>
			<path d="M216.3,42.93c3.18,1.38,5.58,3.2,7.19,5.46c1.61,2.26,2.4,4.94,2.38,8.02c-0.02,4.51-1.48,8.14-4.36,10.88
				c-2.88,2.74-6.69,4.1-11.43,4.07c-3.86-0.02-7.09-1.03-9.7-3.02c-2.6-1.99-4.35-4.81-5.25-8.45l5.31-2.58
				c0.7,2.97,1.86,5.23,3.5,6.77c1.63,1.54,3.69,2.31,6.17,2.33c2.92,0.02,5.3-0.81,7.11-2.49c1.82-1.68,2.73-3.86,2.75-6.57
				c0.01-2.19-0.61-4.09-1.86-5.72c-1.25-1.63-3.15-3-5.69-4.13l-5.95-2.58c-3.25-1.38-5.67-3.14-7.26-5.3
				c-1.58-2.15-2.37-4.72-2.35-7.71c0.02-3.48,1.33-6.36,3.93-8.62s5.91-3.38,9.93-3.36c2.95,0.02,5.49,0.66,7.64,1.92
				c2.15,1.26,3.82,3.11,5.01,5.55l-4.84,3.05c-1.08-1.9-2.3-3.32-3.66-4.26c-1.36-0.93-2.89-1.41-4.61-1.41
				c-2.19-0.01-3.98,0.65-5.39,1.98c-1.4,1.33-2.11,3.04-2.12,5.11c-0.01,1.74,0.52,3.25,1.58,4.53c1.07,1.28,2.72,2.42,4.97,3.41
				L216.3,42.93z"/>
			<path d="M255.88,55.84l-24.28-0.13v0.47c-0.02,3.28,0.91,5.94,2.77,7.97s4.3,3.05,7.32,3.07c2.05,0.01,3.91-0.53,5.57-1.63
				c1.66-1.09,3.13-2.76,4.41-4.98l3.97,2.7c-1.56,2.76-3.53,4.84-5.93,6.23s-5.17,2.08-8.32,2.06c-4.67-0.02-8.43-1.58-11.29-4.68
				c-2.86-3.1-4.28-7.15-4.25-12.15c0.03-4.8,1.47-8.72,4.35-11.77c2.87-3.04,6.55-4.55,11.04-4.53c4.53,0.02,8.11,1.5,10.74,4.41
				c2.63,2.92,3.93,6.89,3.9,11.91V55.84z M250.27,51.56c-0.16-2.7-1.05-4.79-2.66-6.26c-1.61-1.47-3.82-2.21-6.64-2.23
				c-2.55-0.01-4.67,0.74-6.38,2.26c-1.71,1.52-2.7,3.56-2.98,6.13L250.27,51.56z"/>
			<path d="M259.37,70.39l0.28-51.91l5.36,0.03l-0.28,51.91L259.37,70.39z"/>
			<path d="M271.39,70.46l0.28-51.91l5.36,0.03l-0.28,51.91L271.39,70.46z"/>
		</g>
		<g>
			<path d="M295.05,19.98v10.85H293V19.98h-3.34v-1.74h8.72v1.74H295.05z"/>
			<path d="M299.55,30.83V18.24h2.05v4.64h6.19v-4.64h2.05v12.59h-2.05v-6.11h-6.19v6.11H299.55z"/>
			<path d="M312.33,30.83V18.24h7.02v1.74h-4.98v3.16h4.98v1.8h-4.98v4.07h4.98v1.83h-7.02V30.83z"/>
			<path d="M326.24,30.83V18.24h3.17c0.91,0,1.57,0.05,2.01,0.15c0.43,0.1,0.8,0.26,1.1,0.48c0.39,0.29,0.69,0.66,0.91,1.13
				c0.21,0.46,0.32,0.98,0.32,1.54c0,0.67-0.15,1.23-0.46,1.68s-0.76,0.76-1.35,0.94c0.73,0.11,1.31,0.45,1.73,1
				s0.63,1.25,0.63,2.09c0,0.51-0.09,0.99-0.27,1.45s-0.43,0.85-0.76,1.17c-0.34,0.35-0.77,0.6-1.28,0.74
				c-0.51,0.14-1.37,0.21-2.57,0.21L326.24,30.83L326.24,30.83z M328.24,23.56h0.78c0.97,0,1.66-0.13,2.07-0.4
				c0.4-0.27,0.61-0.71,0.61-1.34c0-0.69-0.19-1.17-0.56-1.45c-0.37-0.28-1.08-0.42-2.12-0.42h-0.78V23.56z M328.24,29.12h0.71
				c0.72,0,1.25-0.03,1.61-0.09s0.64-0.16,0.84-0.3c0.25-0.17,0.45-0.39,0.58-0.67c0.14-0.28,0.21-0.59,0.21-0.93
				c0-0.4-0.08-0.75-0.25-1.05s-0.4-0.53-0.71-0.7c-0.2-0.1-0.42-0.17-0.67-0.21c-0.25-0.05-0.58-0.07-0.99-0.07h-0.62h-0.71
				L328.24,29.12L328.24,29.12z"/>
			<path d="M336,30.83V18.24h7.02v1.74h-4.98v3.16h4.98v1.8h-4.98v4.07h4.98v1.83H336V30.83z"/>
			<path d="M344.26,28.31l1.63-0.76c0.16,0.56,0.44,0.99,0.85,1.29c0.41,0.29,0.94,0.44,1.58,0.44c0.61,0,1.09-0.17,1.45-0.51
				c0.36-0.34,0.54-0.79,0.54-1.36c0-0.74-0.61-1.4-1.84-1.98c-0.17-0.09-0.3-0.15-0.4-0.19c-1.39-0.68-2.31-1.29-2.77-1.84
				s-0.69-1.22-0.69-2.01c0-1.03,0.35-1.86,1.04-2.49c0.7-0.64,1.61-0.95,2.74-0.95c0.93,0,1.7,0.18,2.33,0.54s1.06,0.87,1.3,1.54
				l-1.6,0.83c-0.25-0.4-0.53-0.68-0.83-0.87c-0.3-0.18-0.65-0.28-1.04-0.28c-0.55,0-0.99,0.14-1.31,0.43s-0.49,0.67-0.49,1.15
				c0,0.76,0.71,1.46,2.13,2.12c0.11,0.05,0.19,0.09,0.26,0.12c1.24,0.57,2.1,1.13,2.56,1.68s0.7,1.23,0.7,2.05
				c0,1.19-0.38,2.14-1.13,2.84s-1.76,1.05-3.04,1.05c-1.07,0-1.95-0.25-2.63-0.74C344.92,29.93,344.47,29.23,344.26,28.31z"/>
			<path d="M358.32,19.98v10.85h-2.05V19.98h-3.34v-1.74h8.72v1.74H358.32z"/>
			<path d="M303.88,44.56c0,0.89-0.17,1.74-0.5,2.54c-0.34,0.8-0.82,1.51-1.47,2.13c-0.65,0.62-1.38,1.1-2.19,1.44
				c-0.81,0.33-1.67,0.5-2.56,0.5c-0.91,0-1.77-0.17-2.59-0.5s-1.55-0.81-2.18-1.43c-0.64-0.63-1.13-1.33-1.46-2.12
				s-0.5-1.64-0.5-2.54s0.17-1.75,0.5-2.54c0.33-0.8,0.82-1.51,1.46-2.14c0.64-0.63,1.37-1.1,2.18-1.43s1.68-0.49,2.59-0.49
				s1.76,0.16,2.58,0.49c0.81,0.33,1.54,0.8,2.18,1.43c0.64,0.64,1.13,1.35,1.47,2.15C303.72,42.83,303.88,43.67,303.88,44.56z
				 M301.75,44.56c0-0.64-0.12-1.24-0.35-1.81s-0.57-1.08-1-1.53c-0.42-0.44-0.92-0.78-1.47-1.02c-0.56-0.24-1.15-0.36-1.77-0.36
				s-1.21,0.12-1.77,0.35c-0.56,0.23-1.06,0.58-1.49,1.02c-0.44,0.44-0.77,0.95-1,1.52s-0.34,1.18-0.34,1.82s0.11,1.24,0.34,1.8
				c0.23,0.57,0.56,1.08,1,1.52c0.44,0.45,0.93,0.79,1.49,1.02c0.55,0.24,1.15,0.35,1.77,0.35c0.61,0,1.2-0.12,1.75-0.35
				c0.55-0.24,1.05-0.58,1.49-1.02c0.44-0.45,0.77-0.96,1-1.53C301.63,45.79,301.75,45.19,301.75,44.56z"/>
			<path d="M305.84,50.83V37.75l7.99,7.69c0.22,0.22,0.44,0.45,0.66,0.7s0.46,0.52,0.7,0.83v-8.73h1.89v13.08l-8.16-7.83
				c-0.22-0.21-0.43-0.44-0.63-0.67c-0.2-0.23-0.4-0.48-0.58-0.74v8.75C307.71,50.83,305.84,50.83,305.84,50.83z"/>
			<path d="M319.6,50.83V38.24h2.05v10.75h4.57v1.83L319.6,50.83L319.6,50.83z"/>
			<path d="M327.52,50.83V38.24h2.05v12.59H327.52z"/>
			<path d="M332.12,50.83V37.75l7.99,7.69c0.22,0.22,0.44,0.45,0.66,0.7s0.46,0.52,0.71,0.83v-8.73h1.89v13.08l-8.16-7.83
				c-0.22-0.21-0.43-0.44-0.63-0.67c-0.2-0.23-0.4-0.48-0.58-0.74v8.75C334,50.83,332.12,50.83,332.12,50.83z"/>
			<path d="M345.88,50.83V38.24h7.02v1.74h-4.98v3.16h4.98v1.8h-4.98v4.07h4.98v1.83h-7.02V50.83z"/>
			<path d="M290.26,68.31l1.63-0.76c0.16,0.56,0.44,0.99,0.85,1.29c0.41,0.29,0.94,0.44,1.58,0.44c0.61,0,1.09-0.17,1.45-0.51
				c0.36-0.34,0.54-0.79,0.54-1.36c0-0.74-0.61-1.4-1.84-1.98c-0.17-0.09-0.3-0.15-0.4-0.19c-1.39-0.68-2.31-1.29-2.77-1.84
				c-0.46-0.55-0.69-1.22-0.69-2.01c0-1.03,0.35-1.86,1.04-2.49c0.7-0.64,1.61-0.95,2.74-0.95c0.93,0,1.71,0.18,2.33,0.54
				s1.06,0.87,1.3,1.54l-1.6,0.83c-0.25-0.4-0.53-0.68-0.83-0.87c-0.3-0.18-0.65-0.28-1.04-0.28c-0.55,0-0.99,0.14-1.31,0.43
				s-0.49,0.67-0.49,1.15c0,0.76,0.71,1.46,2.13,2.12c0.11,0.05,0.19,0.09,0.26,0.12c1.24,0.57,2.1,1.13,2.56,1.68
				s0.7,1.23,0.7,2.05c0,1.19-0.38,2.14-1.13,2.84s-1.77,1.05-3.04,1.05c-1.07,0-1.95-0.25-2.63-0.74
				C290.92,69.93,290.47,69.23,290.26,68.31z"/>
			<path d="M300.25,70.83V58.24h7.02v1.74h-4.98v3.16h4.98v1.8h-4.98v4.07h4.98v1.83h-7.02V70.83z"/>
			<path d="M309.24,70.83V58.24h2.05v10.75h4.57v1.83L309.24,70.83L309.24,70.83z"/>
			<path d="M317.13,70.83V58.24h2.05v10.75h4.57v1.83L317.13,70.83L317.13,70.83z"/>
			<path d="M325.05,70.83V58.24h2.05v12.59H325.05z"/>
			<path d="M329.65,70.83V57.75l8,7.69c0.22,0.22,0.44,0.45,0.66,0.7s0.46,0.52,0.71,0.83v-8.73h1.89v13.08l-8.16-7.83
				c-0.22-0.21-0.43-0.44-0.63-0.67c-0.2-0.23-0.4-0.48-0.58-0.74v8.75C331.54,70.83,329.65,70.83,329.65,70.83z"/>
			<path d="M350.38,64.38h4.99c0,0.09,0,0.21,0.01,0.36c0.02,0.41,0.03,0.68,0.03,0.83c0,1.77-0.51,3.15-1.52,4.13
				c-1.01,0.98-2.44,1.47-4.29,1.47c-1.03,0-1.95-0.15-2.76-0.46c-0.81-0.3-1.52-0.76-2.12-1.38c-0.6-0.61-1.05-1.32-1.37-2.14
				s-0.48-1.7-0.48-2.63c0-0.95,0.16-1.83,0.49-2.63c0.32-0.8,0.8-1.51,1.44-2.12c0.61-0.6,1.33-1.06,2.16-1.38
				c0.83-0.32,1.71-0.47,2.65-0.47c0.99,0,1.88,0.18,2.66,0.54s1.48,0.91,2.09,1.66l-1.5,1.13c-0.42-0.49-0.9-0.86-1.44-1.1
				c-0.53-0.24-1.13-0.36-1.79-0.36c-1.36,0-2.48,0.44-3.34,1.31c-0.86,0.87-1.29,2.01-1.29,3.41c0,1.42,0.43,2.57,1.29,3.46
				c0.86,0.89,1.98,1.33,3.36,1.33c1.17,0,2.09-0.27,2.76-0.82c0.67-0.54,1.01-1.29,1.01-2.23v-0.18h-3.03L350.38,64.38
				L350.38,64.38z"/>
			<path d="M361.37,68.31l1.63-0.76c0.15,0.56,0.44,0.99,0.85,1.29c0.41,0.29,0.94,0.44,1.58,0.44c0.61,0,1.09-0.17,1.45-0.51
				c0.36-0.34,0.54-0.79,0.54-1.36c0-0.74-0.61-1.4-1.84-1.98c-0.17-0.09-0.3-0.15-0.4-0.19c-1.39-0.68-2.31-1.29-2.77-1.84
				c-0.46-0.55-0.69-1.22-0.69-2.01c0-1.03,0.35-1.86,1.04-2.49c0.7-0.64,1.61-0.95,2.74-0.95c0.93,0,1.71,0.18,2.33,0.54
				s1.06,0.87,1.3,1.54l-1.6,0.83c-0.25-0.4-0.53-0.68-0.83-0.87c-0.3-0.18-0.65-0.28-1.04-0.28c-0.55,0-0.99,0.14-1.31,0.43
				s-0.49,0.67-0.49,1.15c0,0.76,0.71,1.46,2.13,2.12c0.11,0.05,0.2,0.09,0.26,0.12c1.24,0.57,2.1,1.13,2.56,1.68s0.7,1.23,0.7,2.05
				c0,1.19-0.38,2.14-1.13,2.84s-1.77,1.05-3.04,1.05c-1.07,0-1.95-0.25-2.64-0.74C362.03,69.93,361.58,69.23,361.37,68.31z"/>
			<path d="M384.27,64.56c0,0.89-0.17,1.74-0.5,2.54c-0.34,0.8-0.82,1.51-1.47,2.13c-0.65,0.62-1.38,1.1-2.19,1.44
				c-0.81,0.33-1.67,0.5-2.56,0.5c-0.91,0-1.77-0.17-2.59-0.5s-1.55-0.81-2.18-1.43c-0.64-0.63-1.13-1.33-1.46-2.12
				s-0.5-1.64-0.5-2.54s0.17-1.75,0.5-2.54c0.33-0.8,0.82-1.51,1.46-2.14c0.64-0.63,1.37-1.1,2.18-1.43s1.68-0.49,2.59-0.49
				s1.76,0.16,2.58,0.49c0.81,0.33,1.54,0.8,2.18,1.43c0.64,0.64,1.13,1.35,1.47,2.15C384.1,62.83,384.27,63.67,384.27,64.56z
				 M382.14,64.56c0-0.64-0.12-1.24-0.35-1.81s-0.57-1.08-1-1.53c-0.42-0.44-0.92-0.78-1.47-1.02c-0.56-0.24-1.15-0.36-1.77-0.36
				s-1.21,0.12-1.77,0.35c-0.56,0.23-1.06,0.58-1.49,1.02c-0.44,0.44-0.77,0.95-1,1.52s-0.34,1.18-0.34,1.82s0.12,1.24,0.34,1.8
				c0.23,0.57,0.56,1.08,1,1.52c0.44,0.45,0.93,0.79,1.49,1.02c0.56,0.24,1.15,0.35,1.77,0.35c0.61,0,1.2-0.12,1.75-0.35
				c0.55-0.24,1.05-0.58,1.49-1.02c0.44-0.45,0.77-0.96,1-1.53C382.02,65.79,382.14,65.19,382.14,64.56z"/>
			<path d="M386.23,70.83V58.24h2.04v10.75h4.57v1.83L386.23,70.83L386.23,70.83z"/>
			<path d="M393.76,58.24h2.02v7.64c0,1.13,0.26,1.99,0.79,2.56s1.31,0.86,2.35,0.86s1.82-0.29,2.34-0.86s0.79-1.42,0.79-2.56v-7.64
				h2.05v7.83c0,1.7-0.43,2.98-1.29,3.82c-0.86,0.85-2.16,1.27-3.89,1.27s-3.02-0.42-3.88-1.26c-0.85-0.84-1.28-2.12-1.28-3.83
				L393.76,58.24L393.76,58.24z"/>
			<path d="M410.59,59.98v10.85h-2.05V59.98h-3.34v-1.74h8.72v1.74H410.59z"/>
			<path d="M415.13,70.83V58.24h2.05v12.59H415.13z"/>
			<path d="M432.63,64.56c0,0.89-0.17,1.74-0.5,2.54c-0.34,0.8-0.82,1.51-1.46,2.13c-0.65,0.62-1.38,1.1-2.19,1.44
				c-0.81,0.33-1.67,0.5-2.56,0.5c-0.91,0-1.77-0.17-2.59-0.5s-1.55-0.81-2.18-1.43c-0.64-0.63-1.13-1.33-1.46-2.12
				s-0.5-1.64-0.5-2.54s0.17-1.75,0.5-2.54c0.33-0.8,0.82-1.51,1.46-2.14s1.37-1.1,2.18-1.43s1.68-0.49,2.59-0.49
				c0.91,0,1.76,0.16,2.58,0.49c0.81,0.33,1.54,0.8,2.18,1.43c0.64,0.64,1.13,1.35,1.46,2.15
				C432.46,62.83,432.63,63.67,432.63,64.56z M430.5,64.56c0-0.64-0.12-1.24-0.35-1.81s-0.57-1.08-1-1.53
				c-0.42-0.44-0.92-0.78-1.47-1.02c-0.56-0.24-1.15-0.36-1.77-0.36s-1.21,0.12-1.77,0.35c-0.56,0.23-1.06,0.58-1.49,1.02
				c-0.44,0.44-0.77,0.95-1,1.52s-0.34,1.18-0.34,1.82s0.11,1.24,0.34,1.8c0.23,0.57,0.56,1.08,1,1.52
				c0.44,0.45,0.93,0.79,1.49,1.02c0.56,0.24,1.15,0.35,1.77,0.35c0.61,0,1.2-0.12,1.75-0.35c0.55-0.24,1.05-0.58,1.49-1.02
				c0.44-0.45,0.77-0.96,1-1.53C430.38,65.79,430.5,65.19,430.5,64.56z"/>
			<path d="M434.59,70.83V57.75l8,7.69c0.22,0.22,0.44,0.45,0.66,0.7s0.46,0.52,0.71,0.83v-8.73h1.89v13.08l-8.16-7.83
				c-0.22-0.21-0.43-0.44-0.63-0.67c-0.2-0.23-0.4-0.48-0.58-0.74v8.75C436.48,70.83,434.59,70.83,434.59,70.83z"/>
			<path d="M447.62,68.31l1.63-0.76c0.16,0.56,0.44,0.99,0.85,1.29c0.41,0.29,0.94,0.44,1.58,0.44c0.61,0,1.09-0.17,1.45-0.51
				c0.36-0.34,0.54-0.79,0.54-1.36c0-0.74-0.61-1.4-1.84-1.98c-0.17-0.09-0.3-0.15-0.4-0.19c-1.39-0.68-2.31-1.29-2.77-1.84
				c-0.46-0.55-0.69-1.22-0.69-2.01c0-1.03,0.35-1.86,1.04-2.49c0.7-0.64,1.61-0.95,2.74-0.95c0.93,0,1.71,0.18,2.33,0.54
				c0.63,0.36,1.06,0.87,1.3,1.54l-1.6,0.83c-0.25-0.4-0.53-0.68-0.83-0.87c-0.3-0.18-0.65-0.28-1.04-0.28
				c-0.55,0-0.99,0.14-1.31,0.43s-0.49,0.67-0.49,1.15c0,0.76,0.71,1.46,2.13,2.12c0.11,0.05,0.2,0.09,0.26,0.12
				c1.24,0.57,2.1,1.13,2.56,1.68s0.7,1.23,0.7,2.05c0,1.19-0.38,2.14-1.13,2.84s-1.77,1.05-3.04,1.05c-1.07,0-1.95-0.25-2.63-0.74
				C448.28,69.93,447.84,69.23,447.62,68.31z"/>
		</g>
		
			<use xlink:href="#IAI"  width="105.12" height="85.51" x="-52.56" y="-42.76" transform="matrix(0.9999 0 0 -0.9999 52.5538 42.75)" style="overflow:visible;"/>
	</g>
</g>
<g id="Layer_4">
</g>
<g id="Layer_7">
</g>
</svg>
