<svg xmlns="http://www.w3.org/2000/svg" viewBox="0 0 508 508"><path d="M254 0C128.3 0 26.1 102.2 26.1 227.9c0 122.9 97.9 223.4 219.8 227.7V508l60.3-60.3-60.3-60.3v52c-113-4.4-203.5-97.5-203.5-211.5 0-116.7 94.9-211.6 211.6-211.6s211.6 94.9 211.6 211.6h16.3C481.9 102.2 379.7 0 254 0zm8.1 426.6l21 21-21 21v-42z"/><path d="M131.9 105.8V350h244.2V105.8H131.9zm97.7 16.3h48.8v32.6h-48.8v-32.6zm130.2 211.6H148.2V122.1h65.1v48.8h81.4v-48.8h65.1v211.6z"/><path d="M319.1 248.2l-27.9 31.3 12.2 10.8 7.6-8.5v35.6h16.3v-35.6l7.5 8.5 12.2-10.8zM251.4 248.2l-27.9 31.3 12.2 10.8 7.5-8.5v35.6h16.3v-35.6l7.6 8.5 12.1-10.8z"/></svg>